<?xml version="1.0" encoding="UTF-8"?>
<svg width="124px" height="22px" viewBox="0 0 124 22" version="1.1" xmlns="http://www.w3.org/2000/svg" xmlns:xlink="http://www.w3.org/1999/xlink">
    <!-- Generator: Sketch 53.2 (72643) - https://sketchapp.com -->
    <title>Abbvie Logo</title>
    <desc>Created with Sketch.</desc>
    <g id="Symbols" stroke="none" stroke-width="1" fill="none" fill-rule="evenodd">
        <g id="ISI-&amp;-Footer-/-Global" transform="translate(-255.000000, -1055.000000)" fill="#071D49">
            <g id="Release-2-ISI-+-Footer-Large" transform="translate(0.000000, 16.000000)">
                <g id="Footer" transform="translate(0.000000, 713.000000)">
                    <g id="AbbVie-Bar" transform="translate(0.000000, 306.000000)">
                        <g id="abbvie-+-copyright" transform="translate(255.000000, 20.000000)">
                            <path d="M59.3581111,18.845785 L63.1969444,18.845785 C67.7436111,18.845785 69.2918889,15.9955618 69.2918889,13.4391934 C69.2918889,10.859045 67.7453333,8.03599901 63.1969444,8.03599901 L59.3581111,8.03599901 C54.6099444,8.03599901 53.2235556,11.0085203 53.2235556,13.4391934 C53.2235556,15.6133805 54.4618333,18.845785 59.3581111,18.845785 L59.3581111,18.845785 Z M53.0651111,7.85425057 C53.6213889,7.23766472 55.4658889,5.55776554 58.9706111,5.55776554 L63.4845556,5.55776554 C70.2649444,5.55776554 72.1766111,10.0895866 72.1766111,13.4391934 C72.1766111,17.2168434 69.8774444,21.3291143 63.4845556,21.3291143 L58.7036667,21.3291143 C53.8521667,21.3291143 50.3422778,18.234295 50.3422778,13.4425906 L50.3422778,0.202131448 L51.0983333,0.202131448 C52.4692222,0.202131448 53.0651111,0.881564889 53.0651111,2.07736774 L53.0651111,7.85425057 Z M34.3135556,18.845785 L38.1541111,18.845785 C42.6990556,18.845785 44.2456111,15.9955618 44.2456111,13.4391934 C44.2456111,10.859045 42.7007778,8.03599901 38.1541111,8.03599901 L34.3135556,8.03599901 C29.5653889,8.03599901 28.179,11.0085203 28.179,13.4391934 C28.179,15.6133805 29.4155556,18.845785 34.3135556,18.845785 L34.3135556,18.845785 Z M28.0205556,7.85425057 C28.5768333,7.23766472 30.4213333,5.55776554 33.9260556,5.55776554 L38.44,5.55776554 C45.2203889,5.55776554 47.1992222,10.0895866 47.1992222,13.4391934 C47.1992222,17.2168434 44.8328889,21.3291143 38.44,21.3291143 L33.6573889,21.3291143 C28.8058889,21.3291143 25.2977222,18.234295 25.2977222,13.4425906 L25.2977222,0.202131448 L26.0537778,0.202131448 C27.4246667,0.202131448 28.0205556,0.881564889 28.0205556,2.07736774 L28.0205556,7.85425057 Z M97.5604444,5.55776554 L98.115,5.55776554 C99.3687778,5.55776554 100.217833,6.21172023 100.217833,7.59266869 L100.217833,21.3291143 L99.6477778,21.3291143 C98.3216667,21.3291143 97.5604444,20.5273828 97.5604444,19.200789 L97.5604444,5.55776554 Z M98.8882778,3.02347881 C99.5995556,3.02347881 100.286722,2.58864141 100.286722,1.76652694 L100.286722,1.2535547 C100.286722,0.421248733 99.5926667,0 98.8882778,0 C98.1925,0 97.5001667,0.414454399 97.5001667,1.2535547 L97.5001667,1.76652694 C97.5001667,2.59543574 98.1821667,3.02347881 98.8882778,3.02347881 L98.8882778,3.02347881 Z M12.8167778,8.03599901 L8.97277778,8.03599901 C4.42783333,8.03599901 2.883,10.8879209 2.883,13.4391934 C2.883,16.0244377 4.42783333,18.8474836 8.97277778,18.8474836 L12.8167778,18.8474836 C17.5632222,18.8474836 18.9478889,15.8783595 18.9478889,13.4391934 C18.9478889,11.2701022 17.7147778,8.03599901 12.8167778,8.03599901 L12.8167778,8.03599901 Z M22.7195556,21.3291143 C21.2315556,21.3291143 20.6046667,20.7719788 20.3721667,19.576176 L20.0346111,17.8334292 C19.6126667,18.5621216 17.6252222,21.3291143 13.2025556,21.3291143 L8.69205556,21.3291143 C1.91166667,21.3291143 0,16.7938961 0,13.4391934 C0,9.67003644 2.29572222,5.55776554 8.69205556,5.55776554 L13.4712222,5.55776554 C18.3261667,5.55776554 21.0214444,8.35023698 21.6724444,11.744007 C22.2097778,14.5755459 23.4859444,21.3291143 23.4859444,21.3291143 L22.7195556,21.3291143 Z M85.7511667,20.3320457 C85.0708889,21.2458837 84.7901667,21.5652174 84.0117222,21.5652174 C83.1471667,21.5652174 82.8733333,21.1269828 82.2791667,20.3320457 C80.8497222,18.4058519 72.4418333,5.55776554 72.4418333,5.55776554 L73.6439444,5.55776554 C75.5935,5.55776554 76.2410556,6.4529191 76.8645,7.38883866 C77.407,8.20415879 84.1753333,18.4517137 84.1753333,18.4517137 C84.1753333,18.4517137 90.5906111,8.69504945 91.4637778,7.35656557 C92.039,6.47839785 92.8467222,5.55776554 94.7704444,5.55776554 L95.7090556,5.55776554 C95.7090556,5.55776554 86.9205556,18.7608559 85.7511667,20.3320457 L85.7511667,20.3320457 Z M112.435278,7.86614065 L118.447556,7.86614065 C120.610667,7.86614065 121.106667,9.19273445 121.106667,10.0505192 C121.106667,10.8148818 120.655444,12.2298019 118.447556,12.2298019 L106.507389,12.2298019 C106.658944,10.7452399 107.911,7.86614065 112.435278,7.86614065 L112.435278,7.86614065 Z M123.584944,20.5936276 C123.584944,19.3010055 122.827167,18.845785 121.5665,18.845785 L112.335389,18.845785 C107.885167,18.845785 106.702,16.2214734 106.5005,14.5398756 L119.019333,14.5398756 C122.863333,14.5398756 124,11.8085532 124,10.0505192 C124,8.17528287 122.765167,5.55776554 119.019333,5.55776554 L112.170056,5.55776554 C105.682444,5.55776554 103.5555,9.91123531 103.5555,13.4391934 C103.5555,17.3238541 105.975222,21.3291143 112.152833,21.3291143 L123.584944,21.3291143 L123.584944,20.5936276 Z" id="Abbvie-Logo"></path>
                        </g>
                    </g>
                </g>
            </g>
        </g>
    </g>
</svg>